<svg width="24" height="24" viewBox="0 0 24 24" fill="none" xmlns="http://www.w3.org/2000/svg">
<path fill-rule="evenodd" clip-rule="evenodd" d="M22 17C22 19.7614 19.7614 22 17 22L7 22C4.23858 22 2 19.7614 2 17L2 7C2 4.23857 4.23858 2 7 2L17 2C19.7614 2 22 4.23857 22 7L22 17ZM11.8232 12.7626C11.9209 12.8602 12.0791 12.8602 12.1768 12.7626L14.4697 10.4697C14.7626 10.1768 15.2374 10.1768 15.5303 10.4697C15.8232 10.7626 15.8232 11.2374 15.5303 11.5303L13.2374 13.8232C12.554 14.5066 11.446 14.5066 10.7626 13.8232L8.46967 11.5303C8.17678 11.2374 8.17678 10.7626 8.46967 10.4697C8.76256 10.1768 9.23744 10.1768 9.53033 10.4697L11.8232 12.7626Z" fill="black"/>
</svg>
