<svg width="24" height="24" viewBox="0 0 24 24" fill="none" xmlns="http://www.w3.org/2000/svg">
<path fill-rule="evenodd" clip-rule="evenodd" d="M2 7C2 4.23858 4.23858 2 7 2L17 2C19.7614 2 22 4.23858 22 7L22 17C22 19.7614 19.7614 22 17 22L7 22C4.23858 22 2 19.7614 2 17L2 7ZM12.1768 11.2374C12.0791 11.1398 11.9209 11.1398 11.8232 11.2374L9.53033 13.5303C9.23744 13.8232 8.76256 13.8232 8.46967 13.5303C8.17678 13.2374 8.17678 12.7626 8.46967 12.4697L10.7626 10.1768C11.446 9.49336 12.554 9.49336 13.2374 10.1768L15.5303 12.4697C15.8232 12.7626 15.8232 13.2374 15.5303 13.5303C15.2374 13.8232 14.7626 13.8232 14.4697 13.5303L12.1768 11.2374Z" fill="black"/>
</svg>
